<?xml version="1.0" encoding="utf-8"?>
<!-- Generator: Adobe Illustrator 15.1.0, SVG Export Plug-In  -->
<!DOCTYPE svg PUBLIC "-//W3C//DTD SVG 1.1//EN" "http://www.w3.org/Graphics/SVG/1.1/DTD/svg11.dtd" [
	<!ENTITY ns_flows "http://ns.adobe.com/Flows/1.0/">
]>
<svg version="1.1"
	 xmlns="http://www.w3.org/2000/svg" xmlns:xlink="http://www.w3.org/1999/xlink" xmlns:a="http://ns.adobe.com/AdobeSVGViewerExtensions/3.0/"
	 x="0px" y="0px" width="153px" height="153px" viewBox="-30.042 -28.401 153 153" enable-background="new -30.042 -28.401 153 153"
	 xml:space="preserve">
<defs>
</defs>
<path fill="#F9D9C2" d="M17.696,29.941c0,0-6.432,2.219-5.065,7.931c1.279,5.352,8.191,4.213,8.191,4.213"/>
<path fill="#323A44" d="M19.294,43.703c-3.01,0-7.081-1.123-8.123-5.482c-1.331-5.564,3.366-8.775,6.035-9.697l0.983,2.834
	c-0.21,0.074-5.129,1.865-4.101,6.166c0.944,3.948,6.262,3.119,6.488,3.082l0.487,2.959C20.553,43.649,19.948,43.703,19.294,43.703z
	"/>
<path fill="#323A44" d="M46.217,123.436c-25.593,0-44.516-13.689-45.309-14.271l-0.545-0.4l-0.061-0.674
	C0.226,107.243-1.5,87.274,4.228,79.641c2.514-3.353,11.009-5.053,25.249-5.053c4.492,0,7.756,0.18,7.893,0.188l17.78-0.002
	c0.053-0.006,3.315-0.186,7.809-0.186c14.24,0,22.734,1.7,25.248,5.053c5.727,7.634,4.002,27.603,3.926,28.449l-0.058,0.64
	l-0.503,0.4C90.835,109.714,73.253,123.436,46.217,123.436z M3.232,107.127c3.27,2.217,20.75,13.309,42.984,13.309
	c23.52,0,39.933-11.062,42.978-13.273c0.246-3.476,1.122-19.709-3.388-25.721c-1.81-2.413-10.351-3.854-22.849-3.854
	c-4.403,0-7.692,0.182-7.725,0.184l-17.948,0.002c-0.117-0.004-3.407-0.186-7.809-0.186c-12.499,0-21.04,1.44-22.849,3.854
	C2.608,86.799,2.778,101.173,3.232,107.127z"/>
<path fill="#323A44" d="M46.12,123.436c-25.591,0-44.606-13.687-45.403-14.27c-0.668-0.489-0.814-1.427-0.326-2.096
	c0.488-0.667,1.426-0.816,2.096-0.326c0.188,0.137,19.054,13.691,43.633,13.691c23.522,0,39.976-11.064,43.028-13.275
	c0.249-3.475,1.145-19.707-3.365-25.719c-0.498-0.663-0.363-1.604,0.3-2.1c0.661-0.498,1.604-0.363,2.1,0.299
	c5.728,7.635,3.979,27.604,3.901,28.451l-0.059,0.64l-0.504,0.399C90.784,109.715,73.155,123.436,46.12,123.436z"/>
<path fill="#F9D9C2" d="M34.958,60.599v14c0,12,20,12,20,0v-14"/>
<path fill="#323A44" d="M45.428,84.773c-2.959,0-5.718-0.916-7.797-2.579c-2.413-1.93-3.673-4.669-3.673-7.921v-13.5
	c0-0.828,0.671-1.5,1.5-1.5s1.5,0.672,1.5,1.5v13.5c0,5.152,4.406,7.5,8.5,7.5s8.5-2.348,8.5-7.5v-13.5c0-0.828,0.672-1.5,1.5-1.5
	s1.5,0.672,1.5,1.5v13.5C56.958,81.167,51.143,84.773,45.428,84.773z"/>
<path fill="#F9D9C2" d="M72.448,29.941c0,0,6.431,2.219,5.065,7.931c-1.28,5.352-8.19,4.213-8.19,4.213"/>
<path fill="#323A44" d="M70.85,43.703c-0.654,0-1.259-0.054-1.771-0.139l0.487-2.959c0.222,0.033,5.552,0.834,6.488-3.082
	c1.028-4.301-3.892-6.092-4.101-6.166l0.982-2.834c2.67,0.922,7.366,4.133,6.036,9.697C77.931,42.58,73.859,43.702,70.85,43.703z"/>
<path fill="#F9D9C2" d="M72.903,27.521C71.64,39.775,63.507,66.25,45.784,66.25c-16.366,0-26.85-26.324-28.584-38.729
	C15.5,15.368,21.4,1.5,45.049,1.5C68.298,1.5,74.047,16.427,72.903,27.521z"/>
<path fill="#323A44" d="M45.784,67.75c-17.084,0-28.18-26.502-30.069-40.021c-1.032-7.375,0.723-14.107,4.94-18.955
	C25.719,2.952,33.926,0,45.049,0c10.476,0,18.405,2.902,23.567,8.624c4.416,4.895,6.522,11.839,5.779,19.051
	C73.323,38.071,65.765,67.75,45.784,67.75z M45.049,3c-10.216,0-17.662,2.605-22.13,7.742c-3.639,4.184-5.143,10.068-4.233,16.571
	C20.226,38.33,30.21,64.75,45.784,64.75c16.449,0,24.369-25.186,25.627-37.383c0.656-6.369-1.174-12.469-5.022-16.734
	C61.819,5.568,54.64,3,45.049,3z"/>
<path fill="#F9D9C2" d="M31.755,29.032c0,0,1.438-2.093,3.663-2.093c2.224,0,3.016,2.093,3.016,2.093"/>
<path fill="#323A44" d="M38.434,30.533c-0.606,0-1.176-0.37-1.403-0.971c-0.041-0.098-0.497-1.123-1.613-1.123
	c-1.374,0-2.417,1.428-2.427,1.442c-0.47,0.683-1.402,0.856-2.086,0.387c-0.683-0.47-0.856-1.403-0.387-2.086
	c0.077-0.112,1.92-2.743,4.899-2.743c2.573,0,3.988,1.925,4.418,3.063c0.293,0.773-0.097,1.641-0.872,1.934
	C38.79,30.502,38.61,30.533,38.434,30.533z"/>
<path fill="#F9D9C2" d="M52.685,29.032c0,0,1.439-2.093,3.663-2.093s3.017,2.093,3.017,2.093"/>
<path fill="#323A44" d="M59.364,30.533c-0.605,0-1.176-0.37-1.403-0.97c-0.041-0.098-0.497-1.124-1.613-1.124
	c-1.374,0-2.417,1.428-2.427,1.443c-0.469,0.682-1.403,0.855-2.086,0.385c-0.684-0.469-0.855-1.402-0.387-2.086
	c0.077-0.111,1.92-2.742,4.899-2.742c2.573,0,3.988,1.924,4.419,3.062c0.293,0.774-0.097,1.641-0.871,1.935
	C59.72,30.502,59.54,30.533,59.364,30.533z"/>
<path fill="#F9D9C2" d="M40.126,46.037c0,0,0.785,3.795,5.756,3.795c4.971,0,5.755-3.795,5.755-3.795"/>
<path fill="#323A44" d="M45.883,51.332c-4.898,0-6.868-3.265-7.225-4.99c-0.168-0.812,0.354-1.605,1.165-1.773
	c0.807-0.166,1.594,0.348,1.77,1.148c0.068,0.283,0.74,2.615,4.291,2.615c3.706,0,4.281-2.572,4.286-2.598
	c0.168-0.813,0.959-1.338,1.773-1.166c0.811,0.168,1.332,0.962,1.164,1.773C52.75,48.067,50.78,51.332,45.883,51.332z"/>
<path fill="#F9D9C2" d="M45.171,40.412c0,0,2.608-0.85,2.608-2.551c0-1.699-2.608-1.797-2.608-1.797"/>
<path fill="#323A44" d="M45.17,41.913c-0.632,0-1.219-0.402-1.426-1.036c-0.256-0.785,0.172-1.631,0.957-1.889
	c0.767-0.258,1.578-0.837,1.578-1.127c-0.111-0.107-0.761-0.283-1.165-0.299c-0.828-0.031-1.474-0.727-1.443-1.555
	c0.031-0.828,0.733-1.468,1.555-1.443c1.952,0.074,4.052,1.137,4.052,3.297c0,2.712-3.271,3.855-3.644,3.978
	C45.481,41.889,45.325,41.913,45.17,41.913z"/>
<path fill="#F9D9C2" d="M35.418,19.482c0,0-4.972-2.093-8.241,3.009"/>
<path fill="#323A44" d="M27.175,23.991c-0.277,0-0.557-0.077-0.808-0.237c-0.697-0.447-0.9-1.375-0.453-2.072
	c3.125-4.875,7.963-4.475,10.086-3.581c0.764,0.321,1.122,1.2,0.8,1.964c-0.32,0.761-1.195,1.12-1.955,0.805
	c-0.402-0.162-3.928-1.436-6.406,2.432C28.153,23.748,27.669,23.991,27.175,23.991z"/>
<path fill="#F9D9C2" d="M55.432,19.482c0,0,4.972-2.093,8.241,3.009"/>
<path fill="#323A44" d="M63.675,23.991c-0.494,0-0.979-0.243-1.265-0.69c-2.481-3.872-6.012-2.59-6.407-2.432
	c-0.764,0.309-1.639-0.056-1.953-0.817c-0.313-0.762,0.041-1.632,0.8-1.951c2.122-0.894,6.961-1.295,10.086,3.581
	c0.447,0.697,0.244,1.625-0.453,2.072C64.231,23.914,63.951,23.991,63.675,23.991z"/>
<path fill="#E8C5AF" d="M53.958,68.482c0,0-3.711,2.541-8.252,2.541c-5,0-8.748-2.541-8.748-2.541v-3.25
	c0,0,3.706,2.479,8.748,2.479c5.042,0,8.252-1.938,8.252-1.938V68.482z"/>
</svg>
