<?xml version="1.0" encoding="utf-8"?>
<!-- Generator: Adobe Illustrator 15.1.0, SVG Export Plug-In  -->
<!DOCTYPE svg PUBLIC "-//W3C//DTD SVG 1.1//EN" "http://www.w3.org/Graphics/SVG/1.1/DTD/svg11.dtd" [
	<!ENTITY ns_flows "http://ns.adobe.com/Flows/1.0/">
]>
<svg version="1.1"
	 xmlns="http://www.w3.org/2000/svg" xmlns:xlink="http://www.w3.org/1999/xlink" xmlns:a="http://ns.adobe.com/AdobeSVGViewerExtensions/3.0/"
	 x="0px" y="0px" width="153px" height="153px" viewBox="-33.03 -14.045 153 153" enable-background="new -33.03 -14.045 153 153"
	 xml:space="preserve">
<defs>
</defs>
<path fill="#0E9B58" d="M0.098,121.515c0,0-1.022-20.634,3.542-25.717c4.106-4.574,24.107-4.489,27.789-3.78
	c0,0,2.409,6.737,11.487,6.737c7.547,0,10.449-6.679,10.449-6.679s22.668-1.405,28.916,3.185c4.588,3.37,4.878,23.143,3.879,26.256
	c0,0-15.961,13.274-42.813,13.274C18.784,134.791,0.098,121.515,0.098,121.515z"/>
<path fill="#0B894A" d="M82.28,95.261c4.588,3.37,5.254,22.744,3.879,26.256c0,0-15.961,13.274-42.813,13.274
	c-24.562,0-43.248-13.276-43.248-13.276L82.28,95.261z"/>
<path fill="#323A44" d="M73.909,106.955h-16c-0.828,0-1.5-0.672-1.5-1.5s0.672-1.5,1.5-1.5h16c0.828,0,1.5,0.672,1.5,1.5
	S74.737,106.955,73.909,106.955z"/>
<path fill="#171D23" stroke="#323A44" stroke-width="3" stroke-linejoin="round" stroke-miterlimit="10" d="M69.46,42.298
	c0,0-3.281-17.65-15.315-20.399c-12.035-2.748-6.703-9.724-2.878-11.12C55.091,9.382,82.707,8.947,69.46,42.298z"/>
<path fill="#171D23" stroke="#323A44" stroke-width="3" stroke-linejoin="round" stroke-miterlimit="10" d="M14.708,42.298
	c0,0,6.129-23.453,16.675-20.27c9.093,2.744,15.436,7.849,23.284,3.662C65.563,19.88,53.711-0.248,36.616,1.622
	C19.871,3.453,6.005,13.856,14.708,42.298z"/>
<path fill="#0D1216" d="M14.826,37.021c0,0,3.389-11.227,10.708-15.766c4.167-2.584,15.289,3.338,19.959,4.334
	c11.619,2.477,14.083-7.292,10.416-12.084c-6.359-8.311-22.667-8.459-33.583,2.584C16.965,21.511,14.826,37.021,14.826,37.021z"/>
</svg>
