<?xml version="1.0" encoding="utf-8"?>
<!-- Generator: Adobe Illustrator 15.1.0, SVG Export Plug-In  -->
<!DOCTYPE svg PUBLIC "-//W3C//DTD SVG 1.1//EN" "http://www.w3.org/Graphics/SVG/1.1/DTD/svg11.dtd" [
	<!ENTITY ns_flows "http://ns.adobe.com/Flows/1.0/">
]>
<svg version="1.1"
	 xmlns="http://www.w3.org/2000/svg" xmlns:xlink="http://www.w3.org/1999/xlink" xmlns:a="http://ns.adobe.com/AdobeSVGViewerExtensions/3.0/"
	 x="0px" y="0px" width="164px" height="300px" viewBox="0 0 164 300" enable-background="new 0 0 164 300" xml:space="preserve">
<defs>
</defs>
<polygon fill="none" points="87.265,83 21,83 21,96 93.895,96 132.194,51.459 121.262,42.501 "/>
<path fill="#595959" d="M81.915,0C36.746,0,0,36.748,0,81.915c0,20.018,7.314,39.297,20.594,54.287l0.539,0.607l0.39,0.714
	c2.089,3.827,4.123,7.998,6.088,12.027c3.149,6.464,6.408,13.15,9.383,17.239c4.464,6.324,9.552,11.273,14.937,16.512
	c7.162,6.968,14.565,14.169,21.036,24.949c8.042,12.865,6.425,25.391,5,36.442c-1.253,9.714-2.338,18.105,2.939,26.195l0.143,0.229
	c4.526,7.545,11.856,17.921,21.065,24.492l3.249,2.343c3.148-13.372,10.005-25.287,16.689-36.896
	c6.561-11.397,12.76-22.166,14.935-33.408c1.46-8.034-1.287-15.227-4.468-23.553c-3.3-8.649-7.043-18.447-5.476-29.939
	c1.484-12.616,9.517-25.856,16.607-37.54l2.219-3.545c11.749-14.669,17.959-32.358,17.959-51.155C163.829,36.748,127.082,0,81.915,0
	z M93.895,96H21V83h66.265l33.998-40.499l10.932,8.958L93.895,96z"/>
</svg>
