<?xml version="1.0" encoding="utf-8"?>
<!-- Generator: Adobe Illustrator 15.1.0, SVG Export Plug-In  -->
<!DOCTYPE svg PUBLIC "-//W3C//DTD SVG 1.1//EN" "http://www.w3.org/Graphics/SVG/1.1/DTD/svg11.dtd" [
	<!ENTITY ns_flows "http://ns.adobe.com/Flows/1.0/">
]>
<svg version="1.1"
	 xmlns="http://www.w3.org/2000/svg" xmlns:xlink="http://www.w3.org/1999/xlink" xmlns:a="http://ns.adobe.com/AdobeSVGViewerExtensions/3.0/"
	 x="0px" y="0px" width="187px" height="263px" viewBox="0 0 187 263" enable-background="new 0 0 187 263" xml:space="preserve">
<defs>
</defs>
<path fill="#595959" d="M187.355,163.678v92.916c0,3.255-3.726,6.084-6.979,6.084H38.279c-3.256,0-5.924-2.829-5.924-6.084v-92.916
	H187.355z"/>
<rect x="91.355" y="163.678" fill="#ED522E" width="37" height="99"/>
<path fill="#595959" d="M181.472,77.965c1.198,3.027-0.287,6.453-3.313,7.65L26.681,145.512c-3.026,1.199-6.452-0.288-7.648-3.314
	l-5.605-14.176c-1.197-3.024,0.287-6.452,3.314-7.648L168.22,60.476c3.025-1.196,6.452,0.288,7.647,3.314L181.472,77.965z"/>
<rect x="83.934" y="84.277" transform="matrix(0.3677 0.9299 -0.9299 0.3677 157.3937 -25.5014)" fill="#ED522E" width="27.032" height="37.431"/>
<path fill="#ED522E" d="M102.365,90.582c-1.247-13.984-1.715-27.995-0.384-41.995c1.223-12.854,5.419-39.049,23.313-37.506
	c13.185,1.139,10.741,22.076,9.123,30.524c-4.11,21.488-20.79,35.65-38.414,46.812c-2.381,1.506-6.926,4.477-6.969,7.781
	c-0.042,3.176,5.925,0.098,6.866-0.499c21.322-13.505,42.309-29.998,50.439-54.846c3.908-11.945,7.844-39.147-10.747-40.753
	c-19.32-1.667-36.366,17.633-42.544,33.835c-7.704,20.204-6.4,43.799-4.517,64.923C88.9,103.018,102.771,95.153,102.365,90.582
	L102.365,90.582z"/>
<path fill="#ED522E" d="M98.523,89.79C85.98,69.838,68.981,48.4,45.608,41.038C29.756,36.041,7.465,45.72,1.165,61.402
	C-4.564,75.666,12.134,91.4,23.029,97.574c18.003,10.195,45.077,7.554,64.548,3.53c3.708-0.766,7.18-3.272,9.713-6.012
	c0.869-0.938,3.936-5.485,0.216-4.713c-28.781,5.95-64.625,6.354-80.889-22.448c-2.534-4.488-5.28-13.691,1.098-16.242
	c8.313-3.328,17.808,0.158,25.294,3.912c18.022,9.033,31.706,27.478,42.153,44.102C87.067,102.733,100.736,93.312,98.523,89.79
	L98.523,89.79z"/>
</svg>
