<?xml version="1.0" encoding="utf-8"?>
<!-- Generator: Adobe Illustrator 15.1.0, SVG Export Plug-In  -->
<!DOCTYPE svg PUBLIC "-//W3C//DTD SVG 1.1//EN" "http://www.w3.org/Graphics/SVG/1.1/DTD/svg11.dtd" [
	<!ENTITY ns_flows "http://ns.adobe.com/Flows/1.0/">
]>
<svg version="1.1"
	 xmlns="http://www.w3.org/2000/svg" xmlns:xlink="http://www.w3.org/1999/xlink" xmlns:a="http://ns.adobe.com/AdobeSVGViewerExtensions/3.0/"
	 x="0px" y="0px" width="309px" height="302px" viewBox="0 0 309 302" enable-background="new 0 0 309 302" xml:space="preserve">
<defs>
</defs>
<path fill-rule="evenodd" clip-rule="evenodd" fill="#595959" d="M150.974,0c40.817,22.642,31.768,90.447,5.033,120.779
	C125.577,95.08,124.918,31.11,150.974,0z"/>
<path fill-rule="evenodd" clip-rule="evenodd" fill="#595959" d="M45.292,40.26c49.305,9.407,78.215,39.209,90.585,85.552
	C87.395,135.662,50.237,90.708,45.292,40.26z"/>
<path fill-rule="evenodd" clip-rule="evenodd" fill="#595959" d="M256.656,40.26c13.398,48.681-32.593,81.436-75.487,90.584
	C171.455,85.848,215.006,50.654,256.656,40.26z"/>
<path fill-rule="evenodd" clip-rule="evenodd" fill="#595959" d="M125.813,150.974C98.477,183.465,33.795,180.063,0,156.006
	C27.518,119.014,92.15,122.144,125.813,150.974z"/>
<path fill-rule="evenodd" clip-rule="evenodd" fill="#595959" d="M308.981,145.941c-19.851,39.682-93.888,34.93-120.779,5.032
	C216.296,119.959,275.25,122.152,308.981,145.941z"/>
<path fill-rule="evenodd" clip-rule="evenodd" fill="#595959" d="M176.136,176.136c45.391-6.76,86.338,34.405,90.584,85.552
	C215.065,254.631,186.063,224.922,176.136,176.136z"/>
<path fill-rule="evenodd" clip-rule="evenodd" fill="#595959" d="M135.877,176.136c-8.133,50.579-38.39,79.035-90.585,85.552
	C56.89,214.574,78.554,177.526,135.877,176.136z"/>
<path fill-rule="evenodd" clip-rule="evenodd" fill="#595959" d="M156.007,181.169c28.236,24.624,37.728,104.454-5.033,120.778
	C125.901,264.882,129.294,214.207,156.007,181.169z"/>
<circle fill-rule="evenodd" clip-rule="evenodd" fill="#595959" cx="156.058" cy="150.583" r="21.853"/>
</svg>
