<?xml version="1.0" encoding="utf-8"?>
<!-- Generator: Adobe Illustrator 15.1.0, SVG Export Plug-In  -->
<!DOCTYPE svg PUBLIC "-//W3C//DTD SVG 1.1//EN" "http://www.w3.org/Graphics/SVG/1.1/DTD/svg11.dtd" [
	<!ENTITY ns_flows "http://ns.adobe.com/Flows/1.0/">
]>
<svg version="1.1"
	 xmlns="http://www.w3.org/2000/svg" xmlns:xlink="http://www.w3.org/1999/xlink" xmlns:a="http://ns.adobe.com/AdobeSVGViewerExtensions/3.0/"
	 x="0px" y="0px" width="354px" height="300px" viewBox="0 -2.745 354 300" enable-background="new 0 -2.745 354 300"
	 xml:space="preserve">
<defs>
</defs>
<path fill="#595959" d="M186.043,113.384c0-3.063-1.113-4.872-2.922-4.872c-6.816,0-8.904,15.305-8.625,21.149
	c0,0.834,0.139,1.669,0.139,2.503C181.592,128.966,186.043,121.731,186.043,113.384z"/>
<path fill="#595959" d="M309.417,54.553c-3.838-5.312-13.479-19.339-35.746-26.957c-27.883-9.538-45.159-15.166-55.085-20.509
	c-2.313-1.246-4.891-2.667-8.208-4.022c-0.572,9.5-5.504,28.634-35.948,28.634c-31.289,0-39.586-21.786-41.745-31.698
	c-4.634,1.386-10.023,3.542-17.039,6.891c-16.188,7.727-20.706,7.032-28.91,10.548c-13.325,5.71-27.347,1.954-57.428,58.796
	c0,0-29.886,47.466-29.3,52.154c0.586,4.688,50.982,31.058,55.084,31.058c4.103,0,20.54-30.209,23.44-33.938
	c8.204-10.548,5.274,149.747,5.274,171.747h185.762c0,0-5.859-161.785,1.173-170.575c0,0,24.025,31.033,27.541,31.619
	c3.517,0.586,52.154-26.968,55.085-32.242C356.297,120.783,317.036,65.101,309.417,54.553z M264.93,135.921
	c-2.504,9.183-7.926,21.705-19.894,21.705c-7.371,0-11.682-5.982-11.682-13.079v-28.243c0-4.314-0.5-7.932-3.143-7.932
	c-4.035,0-12.857,11.967-13.857,22.958v20.313c0,2.645,0.426,5.982-3.606,5.982c-2.783,0-6.394-0.973-6.394-6.122v-0.781
	c-4,3.999-10.084,6.903-18.572,6.903c-7.656,0-15.09-3.721-19.746-10.505c-3.253,5.775-8.388,10.505-15.739,10.505
	c-7.374,0-11.942-5.982-11.942-13.079v-28.243c0-4.314-0.194-7.932-2.56-7.932c-3.756,0-11.44,11.967-12.44,22.958v20.313
	c0,2.645,0.426,5.982-3.608,5.982c-2.782,0-6.392-0.973-6.392-6.122v-35.2c0-4.314-0.196-7.932-2.562-7.932
	c-3.755,0-12.438,11.967-12.438,22.958v20.313c0,2.645-0.074,5.982-4.108,5.982c-2.783,0-6.892-0.973-6.892-6.122v-44.104
	c0-2.644-0.558-3.478-0.558-4.451c0-1.393,1.883-2.366,3.831-2.366c4.591,0,7.727,2.782,7.727,6.12v5.844
	c3-7.513,8.272-13.355,14.533-13.355c8.348,0,10.604,6.816,10.883,13.077c3.478-7.375,8.271-13.077,14.532-13.077
	c9.044,0,11.051,7.65,11.051,14.051v28.801c0,1.251,0.023,6.399,3.642,6.399c4.704,0,7.228-6.358,8.65-12.025
	c-0.371-1.991-0.566-4.105-0.566-6.341c0-17.669,10.577-30.885,21.29-30.885c7.792,0,12.523,5.702,12.523,14.051
	c0,10.296-7.096,22.539-20.59,26.575c1.948,4.729,5.774,8.625,13.01,8.625c10.849,0,15.041-9.037,17.041-17.521V68.025
	c0-4.035-1.461-4.312-1.461-5.286c0-0.974,2.254-1.531,4.202-1.531c4.591,0,7.259,2.782,7.259,6.123v45.634
	c4-7.792,9.2-13.773,16.02-13.773c9.32,0,11.98,7.65,11.98,14.051v28.801c0,1.251-0.217,6.399,3.4,6.399
	c5.564,0,7.962-8.904,9.213-15.027C258.638,124.93,266.043,131.471,264.93,135.921z"/>
</svg>
