<?xml version="1.0" encoding="utf-8"?>
<!-- Generator: Adobe Illustrator 15.1.0, SVG Export Plug-In  -->
<!DOCTYPE svg PUBLIC "-//W3C//DTD SVG 1.1//EN" "http://www.w3.org/Graphics/SVG/1.1/DTD/svg11.dtd" [
	<!ENTITY ns_flows "http://ns.adobe.com/Flows/1.0/">
]>
<svg version="1.1"
	 xmlns="http://www.w3.org/2000/svg" xmlns:xlink="http://www.w3.org/1999/xlink" xmlns:a="http://ns.adobe.com/AdobeSVGViewerExtensions/3.0/"
	 x="0px" y="0px" width="351px" height="300px" viewBox="0 0 351 300" enable-background="new 0 0 351 300" xml:space="preserve">
<defs>
</defs>
<path fill="none" d="M154.984,255.885c1.506-1.021,5.583-3.787,0.524-0.568C155.34,255.42,155.159,255.717,154.984,255.885z"/>
<path fill="none" d="M263.987,33.222c-7.859-2.067-22.627,3.102-22.627,3.102v1.034c0,0,12.08,3.102,17.869,3.515
	c5.791,0.414,15.804,4.136,15.804,4.136S271.844,35.29,263.987,33.222z"/>
<path fill="#595959" d="M289.509,24.815c-4.291-4.291-31.989-16.473-69.482-18.747C201.829,4.963,191.903,36.395,154.958,0
	c0,0,1.131,18.198,9.938,23.161c0,0-25.932,1.648-49.093-15.995c0,0,13.241,20.964,25.92,25.371c0,0-30.877,13.228-47.976-3.864
	c0,0,10.475,20.401,28.673,19.852c0,0-25.364,7.173-58.451,4.414c0,0,21.5,13.785,35.84,13.785c0,0-31.426,11.58-52.383,8.271
	c0,0,16.401,10.624,32.512,11.089c1.111,0.032,2.223,0.012,3.328-0.059c17.099-1.104-49.074,18.341-70.031,0.071
	c0,0-1.105,18.677,41.358,21.436c0,0-20.401,18.748-54.594-6.617c0,0,11.574,31.438,48.526,25.92c0,0,0,7.16-7.167,15.988
	c0,0,19.853,1.099,26.47,0c0,0-0.556,16.543-6.068,19.852c0,0,17.648,9.926,34.192,0c0,0-15.444,23.161-25.92,25.927
	c0,0,20.401,4.407,26.469,0c0,0-14.333,28.124-27.019,31.432c0,0,19.296,2.198,30.328-4.419c0,0-9.377,28.679-13.235,30.889
	c0,0,25.079,0.859,27.575-7.173c3.21-10.329-4.414,23.703-2.759,27.567c0,0,20.951-8.271,24.815-18.74
	c0,0-3.864,28.124,4.962,50.729c0,0,10.972-41.533,13.364-42.509c0,0,9.244,15.364,10.365,19.348
	c1.086,3.864-6.081-36.951,10.463-62.309c0,0,3.857,12.123,9.927,20.95c0,0-3.859-31.987,9.382-52.938
	c0,0,3.853,13.791,11.012,19.853c0,0-2.197-28.136,8.841-43.568c0,0,7.717,12.691,11.581,20.963c0,0-4.964-40.259,11.58-51.84
	c16.543-11.58,38.721,6.766,30.32,15.438l11.995-7.722c0,0,5.583,1.241-1.526,14.889c0,0,26.326-15.141,23.16-34.185
	c-0.541-3.308,1.797-4.304,2.715-12.369l-9.331,8.504l-4.964-8.821l-4.962,7.167l-4.396-11.025l-5.531,6.617l-8.272-9.925
	l-8.813,1.654l-1.654-6.617l-6.618,6.617l-8.813-14.889l11.012-13.791l4.42,16.543l7.16-9.371l8.841,10.475l8.271-9.376
	l4.964,10.481l9.927-7.722l4.962,11.031l11.58-11.031c0,0,3.296,9.377-0.568,14.889c0,0,10.455-8.13,14.889-19.852
	c1.783-4.672,17.654-16.543,24.272-38.05C350.719,36.395,296.125,31.432,289.509,24.815z M259.229,40.873
	c-5.789-0.413-17.869-3.515-17.869-3.515v-1.034c0,0,14.768-5.169,22.627-3.102c7.857,2.068,11.046,11.787,11.046,11.787
	S265.02,41.287,259.229,40.873z"/>
</svg>
