<?xml version="1.0" encoding="utf-8"?>
<!-- Generator: Adobe Illustrator 15.1.0, SVG Export Plug-In  -->
<!DOCTYPE svg PUBLIC "-//W3C//DTD SVG 1.1//EN" "http://www.w3.org/Graphics/SVG/1.1/DTD/svg11.dtd" [
	<!ENTITY ns_flows "http://ns.adobe.com/Flows/1.0/">
]>
<svg version="1.1"
	 xmlns="http://www.w3.org/2000/svg" xmlns:xlink="http://www.w3.org/1999/xlink" xmlns:a="http://ns.adobe.com/AdobeSVGViewerExtensions/3.0/"
	 x="0px" y="0px" width="325px" height="223px" viewBox="0.503 0 325 223" enable-background="new 0.503 0 325 223"
	 xml:space="preserve">
<defs>
</defs>
<path fill="none" d="M154.709,205.874c0.303,0.194,0.613,0.385,0.92,0.576C155.323,206.258,155.013,206.069,154.709,205.874z"/>
<path fill="#595959" d="M97.06,187.252c-41.667,0-75.565-33.898-75.565-75.564c0-41.667,33.898-75.565,75.565-75.565
	c2.752,0,5.466,0.158,8.143,0.446c6.37,0.52,30.107,3.867,48.346,25.003c11.855,13.348,19.077,30.901,19.077,50.116
	c0,13.931-3.804,26.982-10.406,38.2c3.404,3.851,8.913,9.103,16.804,13.73c9.557-15.026,15.098-32.843,15.098-51.931
	c0-28.258-12.143-53.732-31.479-71.486c-9.829-8.94-20.049-14.574-28.022-18.011c-11.559-4.869-24.25-7.563-37.558-7.563
	C43.541,14.628,0,58.168,0,111.688c0,53.519,43.541,97.06,97.06,97.06c5.603,0,11.095-0.482,16.441-1.398
	c-4.503-5.116-9.386-11.728-14.129-20.155C98.602,187.218,97.836,187.252,97.06,187.252z"/>
<path fill="#595959" d="M214.675,0c-17.164,0-33.434,3.896-47.978,10.843c8.112,5.695,13.955,11.266,17.982,15.787
	c9.389-3.32,19.484-5.134,29.996-5.134c49.732,0,90.191,40.46,90.191,90.193c0,49.731-40.459,90.193-90.191,90.193
	c-13.404,0-26.133-2.944-37.579-8.211l-0.003,0.004c0,0-22.39-9.098-36.32-30.334l0.003-0.004
	c-10.263-14.64-16.295-32.451-16.295-51.648c0-13.593,3.027-26.489,8.436-38.059c-5.01-4.291-11.115-8.571-18.168-11.793
	c-7.521,15.015-11.763,31.947-11.763,49.852c0,21.713,6.234,41.996,16.999,59.161c4.429,6.915,16.072,23.079,34.724,35.024
	c0.304,0.195,0.614,0.385,0.92,0.576c0.495,0.31,0.988,0.618,1.491,0.922c16.818,10.154,36.516,16.005,57.555,16.005
	c61.584,0,111.688-50.104,111.688-111.688C326.362,50.103,276.259,0,214.675,0z"/>
</svg>
