<?xml version="1.0" encoding="utf-8"?>
<!-- Generator: Adobe Illustrator 15.1.0, SVG Export Plug-In  -->
<!DOCTYPE svg PUBLIC "-//W3C//DTD SVG 1.1//EN" "http://www.w3.org/Graphics/SVG/1.1/DTD/svg11.dtd" [
	<!ENTITY ns_flows "http://ns.adobe.com/Flows/1.0/">
]>
<svg version="1.1"
	 xmlns="http://www.w3.org/2000/svg" xmlns:xlink="http://www.w3.org/1999/xlink" xmlns:a="http://ns.adobe.com/AdobeSVGViewerExtensions/3.0/"
	 x="0px" y="0px" width="262px" height="299px" viewBox="0 0 262 299" enable-background="new 0 0 262 299" xml:space="preserve">
<defs>
</defs>
<path fill="#595959" d="M247,290.069c0,4.917-3.795,8.903-8.705,8.903H23.708c-4.917,0-8.708-3.986-8.708-8.903V132.015
	c0-4.916,3.791-8.042,8.708-8.042h214.587c4.91,0,8.705,3.126,8.705,8.042V290.069z"/>
<path fill="#595959" d="M262,139.333c0,4.916-3.091,8.64-8.005,8.64H8.006c-4.917,0-8.006-3.724-8.006-8.64v-23.019
	c0-4.916,3.088-9.341,8.006-9.341h245.989c4.914,0,8.005,4.425,8.005,9.341V139.333z"/>
<rect x="15" y="147.973" fill="#383838" width="232" height="24"/>
<path fill="none" d="M47.515,11.495c-10.375,0.042-11.628,14.49-10.562,22.2c5.566,40.23,40.033,60.533,76.227,70.816
	c-5.653-26.033-14.732-53.812-32.316-73.479C72.435,21.605,61.037,11.436,47.515,11.495z"/>
<path fill="none" d="M221.142,14.208c-24.273-12.104-44.711,22.354-53.567,39.728c-8.253,16.194-14.651,33.135-20.1,50.429
	c27.387-6.311,53.813-17.461,69.53-42.223C223.966,51.172,239.027,23.13,221.142,14.208z"/>
<path fill="#ED522E" d="M241.699,4.505c-26.203-13.071-60.86,4.569-78.536,23.893c-13.423,14.678-22.84,32.983-30.215,51.99
	c-7.526-26.034-19.521-51.461-40.346-68.364C73.114-3.794,36.433-2.58,18.881,15.944c-15.969,16.852-1.692,48.222,10.18,62.939
	C45.445,99.189,77,110.433,102,116.596v-9.623h58v3.843c27-7.636,55.274-19.828,74.597-43.11
	C246.723,53.098,266.918,17.085,241.699,4.505z M36.954,33.694c-1.067-7.709,0.187-22.157,10.562-22.2
	c13.521-0.059,24.919,10.111,33.349,19.538c17.584,19.667,26.663,47.446,32.316,73.479C76.986,94.227,42.52,73.925,36.954,33.694z
	 M217.005,62.142c-15.717,24.761-42.144,35.912-69.53,42.223c5.448-17.294,11.847-34.235,20.1-50.429
	c8.856-17.374,29.294-51.832,53.567-39.728C239.027,23.13,223.966,51.172,217.005,62.142z"/>
<polygon fill="#ED522E" points="102,106.973 102,116.596 102,298.973 160,298.973 160,110.815 160,106.973 "/>
</svg>
