<?xml version="1.0" encoding="utf-8"?>
<!-- Generator: Adobe Illustrator 15.1.0, SVG Export Plug-In . SVG Version: 6.00 Build 0)  -->
<!DOCTYPE svg PUBLIC "-//W3C//DTD SVG 1.1//EN" "http://www.w3.org/Graphics/SVG/1.1/DTD/svg11.dtd">
<svg version="1.1" id="Layer_1" xmlns="http://www.w3.org/2000/svg" xmlns:xlink="http://www.w3.org/1999/xlink" x="0px" y="0px"
	 width="202px" height="302px" viewBox="0 0 202 302" enable-background="new 0 0 202 302" xml:space="preserve">
<g>
	<path fill="none" d="M75.063,177.639c-4.71,8.636-18.046,15.725-31.36,17.814c2.101,2.971,11.225,13.998,30.935,13.998
		c20.351,0,29.36-11.226,31.321-14.079C92.799,193.192,79.718,186.174,75.063,177.639z"/>
	<path fill="#595959" d="M144.275,235.936c1.49-12.801-8.893-18.16-8.893-18.16s7.016-3.225,7.596-15.118
		c0.454-9.271-5.804-12.969-8.546-14.138c10.938-12.184-3.56-23.889-3.56-23.889c4.023,8.512,0.109,15.092-8.088,17.053
		c-6.78,1.621-13.948-3.25-17.893-10.242c-7.225-12.799-24.926-13.061-29.832-6.932c-4.904-6.129-22.605-5.867-29.829,6.934
		c-3.945,6.99-11.113,11.861-17.893,10.24c-8.199-1.961-12.112-8.541-8.088-17.051c0,0-14.167,11.43-3.94,23.458
		c-2.709,0.171-11.649,1.427-13.47,10.531c-2.423,12.117,5.505,16.565,5.505,16.565s-7.947,8.709-7.31,18.479
		c0.637,9.771,7.434,13.808,7.434,13.808S0,254.48,3.646,265.207c3.764,11.07,15.718,12.002,15.718,12.002
		s-4.233,9.227,5.522,15.291c7.859,4.885,19.329,0.426,19.329,0.426s2.304,8.9,18.541,8.896c15.779-0.002,20.964-9.215,20.964-9.215
		s12.851,8.602,23.365,2.865c10.513-5.734,11.892-15.574,11.892-15.574s10.727,2.379,17.149-9.689
		c6.603-12.408-0.583-19.939-0.583-19.939S142.98,247.047,144.275,235.936z M74.637,209.451c-19.709,0-28.833-11.027-30.935-13.998
		c13.314-2.09,26.65-9.179,31.36-17.814c4.655,8.535,17.736,15.554,30.895,17.733C103.997,198.226,94.988,209.451,74.637,209.451z"
		/>
</g>
<path fill="#595959" d="M170.825,33.918C141.088-1.751,120.387-5.269,85.46,5.087C36.864,19.497,4.062,79.765,21.936,83.306
	c41.37,8.198,67.595,9.721,103.313,0c19.786-5.385-8.14-26.224-7.235-39.562c0.98-14.45,27.965-6.284,46.48-0.132
	C165.775,39.867,167.975,36.545,170.825,33.918z"/>
<circle fill="#595959" cx="186.74" cy="51.205" r="15.373"/>
</svg>
