<?xml version="1.0" encoding="utf-8"?>
<!-- Generator: Adobe Illustrator 15.1.0, SVG Export Plug-In  -->
<!DOCTYPE svg PUBLIC "-//W3C//DTD SVG 1.1//EN" "http://www.w3.org/Graphics/SVG/1.1/DTD/svg11.dtd" [
	<!ENTITY ns_flows "http://ns.adobe.com/Flows/1.0/">
]>
<svg version="1.1"
	 xmlns="http://www.w3.org/2000/svg" xmlns:xlink="http://www.w3.org/1999/xlink" xmlns:a="http://ns.adobe.com/AdobeSVGViewerExtensions/3.0/"
	 x="0px" y="0px" width="293px" height="300px" viewBox="0 0 293 300" enable-background="new 0 0 293 300" xml:space="preserve">
<defs>
</defs>
<path fill="none" d="M24.392,143.977c0,52.592,4.025,75.636,44.025,74.428V202.62V78.414v-7.665
	C28.417,69.579,24.392,91.88,24.392,143.977z"/>
<path fill="#595959" d="M284.004,1.747C251.52,0.188,216.669,0,179.063,0c-37.6,0-70.246,0.188-102.729,1.747
	c-4.878,0.236-7.918,2.874-7.918,9.866v29.479v5.453C28.417,52.286,0,86.367,0,144.612c0,58.227,28.417,92.294,68.417,98.005v29.173
	c0,23.582,69.07,28.615,112.52,28.615c43.434,0,112.48-5.033,112.48-28.615V11.612C293.417,4.621,288.881,1.983,284.004,1.747z
	 M68.417,78.414V202.62v15.785c-40,1.208-44.025-21.836-44.025-74.428c0-52.097,4.025-74.398,44.025-73.228V78.414z M172.173,129.38
	c2.738-1.515,5.773-2.38,9.123-2.38c3.469,0,6.726,0.93,9.529,2.546c5.725,3.299,9.592,9.476,9.592,16.556c0,0.003,0,0.007,0,0.011
	c0,6.785-3.532,12.738-8.866,16.126c-2.956,1.875-6.444,2.966-10.204,2.966c-3.451,0-6.627-0.92-9.42-2.521
	c-5.746-3.29-9.51-9.477-9.51-16.572c0-0.004,0-0.007,0-0.01C162.417,138.903,166.291,132.636,172.173,129.38z M129.987,56.934
	l33.341,57.817c-11.125,6.157-18.911,18.009-18.911,31.625c0,0.006,0,0.012,0,0.019l-66.229-0.065
	C75.997,85.192,129.987,56.934,129.987,56.934z M130.377,234.583l32.741-56.849c5.283,3.026,11.398,4.766,17.924,4.766
	c7.11,0,13.736-2.063,19.326-5.61l33.227,57.693C233.595,234.583,182.226,267.042,130.377,234.583z M284.436,146.329l-67.019,0.066
	c0-0.007,0-0.013,0-0.02c0-13.39-7.385-25.07-18.208-31.31l33.555-58.132C232.764,56.934,286.63,85.192,284.436,146.329z"/>
</svg>
