<?xml version="1.0" encoding="utf-8"?>
<!-- Generator: Adobe Illustrator 15.1.0, SVG Export Plug-In  -->
<!DOCTYPE svg PUBLIC "-//W3C//DTD SVG 1.1//EN" "http://www.w3.org/Graphics/SVG/1.1/DTD/svg11.dtd" [
	<!ENTITY ns_flows "http://ns.adobe.com/Flows/1.0/">
]>
<svg version="1.1"
	 xmlns="http://www.w3.org/2000/svg" xmlns:xlink="http://www.w3.org/1999/xlink" xmlns:a="http://ns.adobe.com/AdobeSVGViewerExtensions/3.0/"
	 x="0px" y="0px" width="218px" height="281px" viewBox="0 0 218 281" enable-background="new 0 0 218 281" xml:space="preserve">
<defs>
</defs>
<path fill="#595959" d="M122.208,248.326c-3.175,0.387-5.444,3.285-5.058,6.461c0.387,3.174,3.284,5.441,6.46,5.057
	c3.176-0.387,5.444-3.285,5.059-6.459C128.283,250.209,125.384,247.939,122.208,248.326z"/>
<path fill="#595959" d="M188.672,7.679c-0.582-4.788-4.938-8.197-9.725-7.614L7.679,20.919c-4.788,0.583-8.197,4.938-7.614,9.726
	l29.557,242.74c0.583,4.787,4.937,8.197,9.725,7.613l171.268-20.854c4.787-0.584,8.197-4.938,7.613-9.725L188.672,7.679z
	 M124.139,264.178c-5.565,0.678-10.645-3.299-11.322-8.863c-0.678-5.566,3.299-10.645,8.864-11.322s10.645,3.299,11.322,8.865
	C133.681,258.42,129.704,263.5,124.139,264.178z M194.328,227.877L47.414,245.766L23.844,52.195L170.76,34.306L194.328,227.877z"/>
</svg>
