<?xml version="1.0" encoding="utf-8"?>
<!-- Generator: Adobe Illustrator 15.1.0, SVG Export Plug-In  -->
<!DOCTYPE svg PUBLIC "-//W3C//DTD SVG 1.1//EN" "http://www.w3.org/Graphics/SVG/1.1/DTD/svg11.dtd" [
	<!ENTITY ns_flows "http://ns.adobe.com/Flows/1.0/">
]>
<svg version="1.1"
	 xmlns="http://www.w3.org/2000/svg" xmlns:xlink="http://www.w3.org/1999/xlink" xmlns:a="http://ns.adobe.com/AdobeSVGViewerExtensions/3.0/"
	 x="0px" y="0px" width="300px" height="300px" viewBox="-34.3 0.031 300 300" enable-background="new -34.3 0.031 300 300"
	 xml:space="preserve">
<defs>
</defs>
<path fill="#595959" d="M0,38.594l14.171,30.046c12.229-6.75,34.103-17.172,62.073-23.536
	c51.389-11.69,101.575-4.598,146.236,20.445l11.4-26.956C233.881,38.594,126.782-48.243,0,38.594z"/>
<path fill="#595959" d="M85.657,133.175c-9.846,32.574,34.605,15.461,34.605,15.461s-8.654,44.444,27.157,24.015
	s-8.358-38.374-8.358-38.374s53.991-0.827,25.356-28.482c-28.646-27.663-42.365,13.3-42.365,13.3S95.501,100.601,85.657,133.175z"/>
<path fill="#595959" d="M83.181,71.219c-26.56,5.91-47.209,16.142-57.457,21.915l97.584,206.897l88.587-209.456
	C172.438,67.5,129.204,60.978,83.181,71.219z M133.795,241.998c-7.151,0.383-6.953-6.947-6.953-6.947s-6.059,13.881-10.495,14.609
	c-4.699,0.766-14.697-6.42-15.469-11.117c-0.725-4.439,10.498-14.605,10.498-14.605c-0.018,0.002-6.903,2.042-9.033-3.824
	c-4.131-11.398,15.159-30.835,35.347-16.323C153.657,215.263,145.536,241.373,133.795,241.998z M177.543,98.113
	c15.19,30.92-5.371,36.165-7.16,41.961c-1.79,5.8,3.583,33.473-20.582,44.516c-24.166,11.042-38.392-11.667-44.655-18.012
	c-6.262-6.352-41.088-6.24-30.227-41.963c10.738-35.335,37.383-26.137,37.383-26.137C117.677,96.821,162.346,67.191,177.543,98.113z
	"/>
</svg>
