<?xml version="1.0" encoding="utf-8"?>
<!-- Generator: Adobe Illustrator 15.1.0, SVG Export Plug-In  -->
<!DOCTYPE svg PUBLIC "-//W3C//DTD SVG 1.1//EN" "http://www.w3.org/Graphics/SVG/1.1/DTD/svg11.dtd" [
	<!ENTITY ns_flows "http://ns.adobe.com/Flows/1.0/">
]>
<svg version="1.1"
	 xmlns="http://www.w3.org/2000/svg" xmlns:xlink="http://www.w3.org/1999/xlink" xmlns:a="http://ns.adobe.com/AdobeSVGViewerExtensions/3.0/"
	 x="0px" y="0px" width="242px" height="300px" viewBox="0 -0.359 242 300" enable-background="new 0 -0.359 242 300"
	 xml:space="preserve">
<defs>
</defs>
<path fill="#595959" d="M239.399,70.892L121.749,0.635c-1.44-0.861-3.783-0.844-5.212,0.036L2.595,70.855
	C1.167,71.736,0,73.829,0,75.506v147.785c0,1.679,1.163,3.782,2.583,4.675l112.89,70.988c1.421,0.894,3.761,0.919,5.2,0.057
	l118.729-71.102c1.44-0.861,2.599-2.939,2.599-4.618V75.506C242,73.829,240.841,71.752,239.399,70.892z M164.547,169.593
	c6.493,7.921-9.111,21.737-9.111,21.737s7.832,44.067-4.438,43.43c-9.605-0.501-7.143-37.307-7.143-37.307
	c-3.025,8.326-11.717,6.612-11.717,6.612s5.212,39.542-5.832,39.522c-11.046-0.02-6.075-38.136-6.075-38.136
	c-2.181-0.607-8.57-2.151-8.57-2.151c-8.836,13.998-29.025,0.381-29.025,0.381c0.075,0.39,0.093,0.748,0.063,1.079
	c-0.478,5.166-13.101,3.52-13.101,3.52s3.351,22.619-5.872,22.512c-8.219-0.099-5.632-25.952-5.632-25.952
	c-8.039,2.699-10.4-5.717-10.4-5.717s2.507,43.572-6.624,42.358c-10.935-1.453-6.976-47.556-6.976-47.556
	c-14.178-12.413-1.449-30.264-1.449-30.264c-12.759-9.902,1.149-28.602,1.149-28.602s-9.927,13.694-17.268,0.364
	c-7.338-13.33,20.234-16.937,20.234-16.937c-1.755-20.708,23.167-11.417,23.167-11.417c13.81-19.197,30.07-2.442,30.07-2.442
	c13.364-16.75,27.547,1.558,27.547,1.558c3.658-11.444,24.433-3.307,25.398,1.665c8.404,43.21,34.019,46.556,34.123,49.71
	C177.493,170.377,164.547,169.593,164.547,169.593z M205.092,96.863c0,0-1.823,44.308-23.643,45.638
	c-21.818,1.328-31.361-45.851-31.361-45.851c-17.271-2.472-25.94-16.134-21.636-16.455c17.211-1.287,22.367,4.34,23.454,3.441
	c28.486-23.556,48.732-2.729,50.319-4.298c1.588-1.569,17.216-3.436,23.216-2.654C233.047,77.675,205.092,96.863,205.092,96.863z"/>
</svg>
