<?xml version="1.0" encoding="utf-8"?>
<!-- Generator: Adobe Illustrator 15.1.0, SVG Export Plug-In . SVG Version: 6.00 Build 0)  -->
<!DOCTYPE svg PUBLIC "-//W3C//DTD SVG 1.1//EN" "http://www.w3.org/Graphics/SVG/1.1/DTD/svg11.dtd">
<svg version="1.1" id="Layer_1" xmlns="http://www.w3.org/2000/svg" xmlns:xlink="http://www.w3.org/1999/xlink" x="0px" y="0px"
	 width="353.945px" height="114.971px" viewBox="0 -3.647 353.945 114.971" enable-background="new 0 -3.647 353.945 114.971"
	 xml:space="preserve">
<path fill="#595959" d="M332.597,8.959c11.219,26.712,0.308,47.371-22.554,53.521c-18.905,5.088-38.895-10.201-49.895-32.143
	c-20.144-40.178-69.5-41-83.178-21.762C163.295-10.662,113.937-9.84,93.795,30.338c-11,21.942-30.987,37.231-49.894,32.143
	C21.04,56.332,10.129,35.671,21.348,8.96c0,0-42.456,38.541-7.621,77.76c39.509,44.479,139.776,11.502,163.246-36.932
	c23.469,48.434,123.736,81.409,163.245,36.932C375.053,47.5,332.597,8.959,332.597,8.959z"/>
</svg>
