<?xml version="1.0" encoding="utf-8"?>
<!-- Generator: Adobe Illustrator 15.1.0, SVG Export Plug-In  -->
<!DOCTYPE svg PUBLIC "-//W3C//DTD SVG 1.1//EN" "http://www.w3.org/Graphics/SVG/1.1/DTD/svg11.dtd" [
	<!ENTITY ns_flows "http://ns.adobe.com/Flows/1.0/">
]>
<svg version="1.1"
	 xmlns="http://www.w3.org/2000/svg" xmlns:xlink="http://www.w3.org/1999/xlink" xmlns:a="http://ns.adobe.com/AdobeSVGViewerExtensions/3.0/"
	 x="0px" y="0px" width="310px" height="294px" viewBox="0 0.479 310 294" enable-background="new 0 0.479 310 294"
	 xml:space="preserve">
<defs>
</defs>
<path fill="#595959" d="M289.871,114.672c-12.291-16.753-47.211-41.869-95.75-45.692c6.734,1.689,13.393,3.761,19.924,6.267
	c13.455,5.176,26.455,12.23,37.629,21.75c5.557,4.767,10.637,10.146,14.828,16.129c4.172,5.98,7.523,12.529,9.391,19.439
	c-9.057-11.021-19.395-19.653-30.762-26.715c-11.334-7.082-23.535-12.672-36.115-17.542c-0.59-0.228-1.188-0.445-1.779-0.67
	c0.328,0.321,0.668,0.626,0.988,0.956c3.203,3.302,6.051,7.044,8.123,11.195c2.053,4.143,3.385,8.678,3.297,13.188
	c-5.541-7.011-11.697-11.73-18.385-15.858c-6.684-4.075-13.781-7.512-21.109-10.774c-7.316-3.259-14.859-6.289-22.501-9.498
	c-0.055,0.027-0.109,0.056-0.164,0.083c-6.383,3.21-12.701,6.194-18.939,9.245c-6.244,3.043-12.402,6.109-18.606,9.332
	c-6.257,3.199-12.363,6.672-19.302,10.34c2.454-7.509,7.278-13.865,12.814-19.25c0.454-0.436,0.923-0.852,1.389-1.273
	c-2.536,0.924-5.069,1.853-7.589,2.816c-12.405,4.752-24.606,9.992-36.671,15.777c-12.11,5.734-23.947,12.137-36.321,18.566
	c4.28-5.527,9.164-10.513,14.33-15.197c5.183-4.666,10.713-8.953,16.483-12.9c11.562-7.867,24.101-14.336,37.184-19.32
	c5.499-2.097,11.097-3.922,16.761-5.496c-14.035,1.582-32.79,4.357-43.982,8.697C53.516,86.611,45.03,93.068,33.028,104.27
	c-8.774,8.189-37.607,33.606-32.405,90.016s60.812,86.813,79.614,92.015c18.803,5.201,142.425,26.803,196.032-28.805
	C329.876,201.887,308.667,140.293,289.871,114.672z M206.257,161.887l-38.807,0.801l18.405-31.605L206.257,161.887z M127.63,181.324
	l16.75,17.649l-34.272-1.546L127.63,181.324z M76.835,132.564l15.003,30.005l-36.606-0.282
	C55.232,162.287,67.635,143.766,76.835,132.564z M173.05,245.22l-2.4-12.804l-11.6,1.601l-1.201,14.002l-54.81-0.398l-3.198-13.202
	l-7.201-1.2l1.201,12.401c-36.808-0.402-51.61-42.008-51.61-42.008c30.404,22.406,82.013,20.805,82.013,20.805l1.599,11.202
	l16.405-1.2l-0.399-11.604c14.002,1.599,92.015-21.203,92.015-21.203C209.46,234.017,173.05,245.22,173.05,245.22z"/>
<path fill="#595959" d="M151.103,63.338c0.959,0.012,1.918,0.051,2.877,0.079c3.216-0.232,6.437-0.38,9.661-0.407
	c3.488-0.018,6.974,0.063,10.455,0.322c0.011,0.001,0.022,0.002,0.033,0.003c-0.201-11.72,0.47-29.464,6.938-42.77
	c2.982-6.133-15.485-23.673-21.286-20.087c-12.036,7.44-17.427,40.301-21.955,63.264c0.87-0.066,1.739-0.123,2.609-0.171
	C143.989,63.36,147.545,63.308,151.103,63.338z"/>
</svg>
