<?xml version="1.0" encoding="utf-8"?>
<!-- Generator: Adobe Illustrator 15.1.0, SVG Export Plug-In . SVG Version: 6.00 Build 0)  -->
<!DOCTYPE svg PUBLIC "-//W3C//DTD SVG 1.1//EN" "http://www.w3.org/Graphics/SVG/1.1/DTD/svg11.dtd">
<svg version="1.1" id="Layer_1" xmlns="http://www.w3.org/2000/svg" xmlns:xlink="http://www.w3.org/1999/xlink" x="0px" y="0px"
	 width="250.176px" height="300px" viewBox="0 0 250.176 300" enable-background="new 0 0 250.176 300" xml:space="preserve">
<path fill="#595959" d="M187.611,87.766h33.332c-0.67-8,0.123-17.27,3.188-26.781C237.053,20.876,228.445,0,206.063,0
	c-24.539,0-35.057,20.691-21.572,61.142C187.662,70.655,188.396,79.766,187.611,87.766z"/>
<path fill="#595959" d="M182.114,110.766h43.702c-1.254-4-2.348-7-3.19-11h-36.942C184.727,103.766,183.499,106.766,182.114,110.766
	z"/>
<path fill="#595959" d="M247.861,162.662c-4.117-12.822-11.619-25.896-17.696-40.896h-52.836c-6.171,13-13.267,26.022-16.03,37.66
	c-8.256,34.742,12.28,125.922,23.191,135.324c6.74,5.811,32.574,6.289,40.988-0.111
	C237.884,285.201,256.786,190.451,247.861,162.662z"/>
<path fill="#595959" d="M36.431,109.874l30.272-13.95c-3.955-6.985-7.21-15.943-8.408-25.863
	c-5.051-41.835-21.652-57.297-41.979-47.93C-5.973,32.401-6.792,55.75,22.381,86.845C29.244,94.158,33.795,102.28,36.431,109.874z"
	/>
<path fill="#595959" d="M41.064,133.063l39.691-18.29c-2.813-3.108-5.062-5.375-7.503-8.655l-33.55,15.462
	C40.506,125.613,40.647,128.851,41.064,133.063z"/>
<path fill="#595959" d="M122.4,152.473c-9.106-9.923-21.295-18.449-33.092-29.528l-47.986,22.111
	c-0.164,14.389-1.254,28.979,1.106,40.705c7.041,35.009,63.806,109.121,77.649,113.095c8.555,2.455,32.241-7.871,37.202-17.205
	C164.6,267.889,142.136,173.977,122.4,152.473z"/>
</svg>
