<?xml version="1.0" encoding="utf-8"?>
<!-- Generator: Adobe Illustrator 15.1.0, SVG Export Plug-In . SVG Version: 6.00 Build 0)  -->
<!DOCTYPE svg PUBLIC "-//W3C//DTD SVG 1.1//EN" "http://www.w3.org/Graphics/SVG/1.1/DTD/svg11.dtd">
<svg version="1.1" id="Layer_1" xmlns="http://www.w3.org/2000/svg" xmlns:xlink="http://www.w3.org/1999/xlink" x="0px" y="0px"
	 width="247.424px" height="300px" viewBox="0 0 247.424 300" enable-background="new 0 0 247.424 300" xml:space="preserve">
<path fill="#595959" d="M220.712,26.524C205.959,26.524,194,38.483,194,53.236c0,14.753,11.959,26.712,26.712,26.712
	s26.712-11.959,26.712-26.712C247.424,38.483,235.465,26.524,220.712,26.524z M229.4,53.236c-4.799,0-8.688-3.891-8.688-8.688
	c0-4.799,3.89-8.689,8.688-8.689c4.798,0,8.688,3.891,8.688,8.689C238.09,49.346,234.199,53.236,229.4,53.236z"/>
<path fill="#595959" d="M176.502,141.714c5.749-17.271,10.334-46.766-7.357-82.888C129.367-22.389,58.274,1.77,43.431,9.04
	c-17.643,8.641-66.995,50.582-30.026,126.063c19.514,39.842,45.564,52.071,60.635,56.827
	C89.944,176.826,121.474,154.328,176.502,141.714z"/>
<path fill="#595959" d="M86.268,195.371c9.405,2.484,35.052,5.947,54.169,56.396c20.261,53.457,25.203,51.629,42.914,42.955
	c17.643-8.642,14.401-13.43-9.717-58.623c-30.305-56.785-7.262-71.668-3.713-78.934c0.369-0.756,0.938-1.868,1.621-3.28
	C128.4,164.975,101.516,182.326,86.268,195.371z"/>
</svg>
