<?xml version="1.0" encoding="utf-8"?>
<!-- Generator: Adobe Illustrator 15.1.0, SVG Export Plug-In  -->
<!DOCTYPE svg PUBLIC "-//W3C//DTD SVG 1.1//EN" "http://www.w3.org/Graphics/SVG/1.1/DTD/svg11.dtd" [
	<!ENTITY ns_flows "http://ns.adobe.com/Flows/1.0/">
]>
<svg version="1.1"
	 xmlns="http://www.w3.org/2000/svg" xmlns:xlink="http://www.w3.org/1999/xlink" xmlns:a="http://ns.adobe.com/AdobeSVGViewerExtensions/3.0/"
	 x="0px" y="0px" width="336px" height="303px" viewBox="0.037 0 336 303" enable-background="new 0.037 0 336 303"
	 xml:space="preserve">
<defs>
</defs>
<path fill="#595959" d="M11.392,276.495C4.441,277.768,0,283.159,0,289.776c0,7.551,7.042,13.558,15.431,13.558h305.027
	c8.389,0,15.286-6.007,15.286-13.558c0-6.47-4.632-11.748-11.353-13.178v-80.189c0-12.26-9-22.175-21-24.431v-43.872
	c0-13.98-10.856-25.772-24.837-25.772H56.9c-13.98,0-25.509,11.792-25.509,25.772v44.118c-11,2.659-20,12.324-20,24.185V276.495z
	 M19.392,211.645c2,4.812,5.104,9.394,7.85,12.577c0,0,27.575,31.999,75.432-7.991c28.739-24.016,55.66-3.267,84.381,21.352
	c17.793,15.252,44.965-8.015,66.319-23.894c38.587-28.694,62.018,23.483,63.018,26.31v36.335h-297V211.645z M71.059,128.789
	c15.251,4.067,19.695,29.459,50.623,21.352c16.604-4.352,15.308-12.233,44.845-17.539c23.893-4.292,41.987,24.495,65.042,17.539
	c28.991-8.747,31.822-32.154,64.822-13.609v34.801h-258v-29.024C44.392,136.905,59.357,125.669,71.059,128.789z"/>
<g>
	<rect x="81.392" y="56.333" fill="#595959" width="12" height="50"/>
</g>
<g>
	<path fill="#595959" d="M87.303,48.09c-6.838,0-14.84-7.706-8.434-23.931C84.104,10.902,87.303,0,87.303,0
		s2.999,10.733,8.206,24.045C102.242,41.27,95.629,48.09,87.303,48.09z"/>
</g>
<g>
	<rect x="161.392" y="56.333" fill="#595959" width="12" height="50"/>
</g>
<g>
	<path fill="#595959" d="M167.845,48.09c-6.837,0-14.84-7.706-8.432-23.931C164.646,10.902,167.845,0,167.845,0
		s3,10.733,8.205,24.045C182.784,41.27,176.171,48.09,167.845,48.09z"/>
</g>
<g>
	<rect x="242.392" y="56.333" fill="#595959" width="12" height="50"/>
</g>
<g>
	<path fill="#595959" d="M248.39,48.09c-6.84,0-14.841-7.706-8.435-23.931C245.19,10.902,248.39,0,248.39,0
		s2.998,10.733,8.203,24.045C263.329,41.27,256.716,48.09,248.39,48.09z"/>
</g>
</svg>
