<?xml version="1.0" encoding="utf-8"?>
<!-- Generator: Adobe Illustrator 15.1.0, SVG Export Plug-In  -->
<!DOCTYPE svg PUBLIC "-//W3C//DTD SVG 1.1//EN" "http://www.w3.org/Graphics/SVG/1.1/DTD/svg11.dtd" [
	<!ENTITY ns_flows "http://ns.adobe.com/Flows/1.0/">
]>
<svg version="1.1"
	 xmlns="http://www.w3.org/2000/svg" xmlns:xlink="http://www.w3.org/1999/xlink" xmlns:a="http://ns.adobe.com/AdobeSVGViewerExtensions/3.0/"
	 x="0px" y="0px" width="200px" height="200px" viewBox="-2.79 -17.803 200 200" enable-background="new -2.79 -17.803 200 200"
	 xml:space="preserve">
<defs>
</defs>
<path fill="#ED522E" d="M147.091,14.699c13.443,0,23.66,9.188,30.363,27.293c3.982,10.783,2.727,22.273-3.84,35.129
	c-5.93,11.607-16,23.872-29.936,36.455c-17.408,15.721-36.51,27.927-46.477,33.874c-9.881-5.891-28.735-17.933-46.11-33.556
	c-14.043-12.629-24.203-24.94-30.194-36.596C14.251,64.374,12.964,52.824,16.963,42c6.703-18.115,16.92-27.301,30.355-27.301
	c8.282,0.006,17.684,3.665,25.147,9.705c5.831,4.718,11.812,12.207,15.554,17.279c3.775,5.117,9.188,14.461,9.188,15.074
	c0,0,4.875-9.094,9.327-15.074c3.314-4.453,9.844-12.781,15.416-17.291C129.413,18.354,138.812,14.699,147.091,14.699 M147.091,0
	c-25.186,0-49.882,21.491-49.882,38.856C97.208,21.502,72.516,0.018,47.331,0C30.39,0,13.239,9.708,3.177,36.899
	c-23.813,64.473,94.03,127.495,94.03,127.495s117.846-63.022,94.036-127.495C181.183,9.721,164.024,0,147.091,0L147.091,0z"/>
</svg>
